<svg enable-background="new 0 0 450 90" viewBox="0 0 450 90" xmlns="http://www.w3.org/2000/svg" xmlns:xlink="http://www.w3.org/1999/xlink"><clipPath id="a"><path d="m0 0h450v90h-450z"/></clipPath><g clip-path="url(#a)" fill="none" stroke="#e6e6e6" stroke-miterlimit="10" stroke-width=".75"><path d="m537.31-.07-90.12 90.14"/><path d="m530.6-.07-90.13 90.14"/><path d="m523.88-.07-90.12 90.14"/><path d="m517.16-.07-90.12 90.14"/><path d="m510.45-.07-90.13 90.14"/><path d="m503.73-.07-90.12 90.14"/><path d="m497.01-.07-90.12 90.14"/><path d="m490.3-.07-90.12 90.14"/><path d="m483.58-.07-90.12 90.14"/><path d="m476.87-.07-90.13 90.14"/><path d="m470.15-.07-90.12 90.14"/><path d="m463.43-.07-90.12 90.14"/><path d="m456.72-.07-90.13 90.14"/><path d="m450-.07-90.12 90.14"/><path d="m443.28-.07-90.12 90.14"/><path d="m436.57-.07-90.13 90.14"/><path d="m429.85-.07-90.12 90.14"/><path d="m423.13-.07-90.12 90.14"/><path d="m416.42-.07-90.13 90.14"/><path d="m409.7-.07-90.12 90.14"/><path d="m402.99-.07-90.13 90.14"/><path d="m396.27-.07-90.12 90.14"/><path d="m389.55-.07-90.12 90.14"/><path d="m382.84-.07-90.13 90.14"/><path d="m376.12-.07-90.12 90.14"/><path d="m369.4-.07-90.12 90.14"/><path d="m362.69-.07-90.13 90.14"/><path d="m355.97-.07-90.12 90.14"/><path d="m349.25-.07-90.12 90.14"/><path d="m342.54-.07-90.13 90.14"/><path d="m335.82-.07-90.12 90.14"/><path d="m329.1-.07-90.12 90.14"/><path d="m322.39-.07-90.13 90.14"/><path d="m315.67-.07-90.12 90.14"/><path d="m308.96-.07-90.13 90.14"/><path d="m302.24-.07-90.12 90.14"/><path d="m295.52-.07-90.12 90.14"/><path d="m288.81-.07-90.13 90.14"/><path d="m282.09-.07-90.12 90.14"/><path d="m275.37-.07-90.12 90.14"/><path d="m268.66-.07-90.13 90.14"/><path d="m261.94-.07-90.12 90.14"/><path d="m255.22-.07-90.12 90.14"/><path d="m248.51-.07-90.13 90.14"/><path d="m241.79-.07-90.12 90.14"/><path d="m235.07-.07-90.12 90.14"/><path d="m228.36-.07-90.13 90.14"/><path d="m221.64-.07-90.12 90.14"/><path d="m214.93-.07-90.13 90.14"/><path d="m208.21-.07-90.12 90.14"/><path d="m201.49-.07-90.12 90.14"/><path d="m194.78-.07-90.13 90.14"/><path d="m188.06-.07-90.12 90.14"/><path d="m181.34-.07-90.12 90.14"/><path d="m174.63-.07-90.13 90.14"/><path d="m167.91-.07-90.12 90.14"/><path d="m161.19-.07-90.12 90.14"/><path d="m154.48-.07-90.13 90.14"/><path d="m147.76-.07-90.12 90.14"/><path d="m141.04-.07-90.12 90.14"/><path d="m134.33-.07-90.13 90.14"/><path d="m127.61-.07-90.12 90.14"/><path d="m120.9-.07-90.13 90.14"/><path d="m114.18-.07-90.12 90.14"/><path d="m107.46-.07-90.12 90.14"/><path d="m100.75-.07-90.13 90.14"/><path d="m94.03-.07-90.12 90.14"/><path d="m87.31-.07-90.12 90.14"/><path d="m80.6-.07-90.13 90.14"/><path d="m73.88-.07-90.12 90.14"/><path d="m67.16-.07-90.12 90.14"/><path d="m60.45-.07-90.13 90.14"/><path d="m53.73-.07-90.12 90.14"/><path d="m47.01-.07-90.12 90.14"/><path d="m40.3-.07-90.12 90.14"/><path d="m33.58-.07-90.12 90.14"/><path d="m26.87-.07-90.13 90.14"/><path d="m20.15-.07-90.12 90.14"/><path d="m13.43-.07-90.12 90.14"/><path d="m6.72-.07-90.13 90.14"/><path d="m0-.07-90.12 90.14"/></g></svg>